<svg width="30" height="30" viewBox="0 0 30 30" fill="none" xmlns="http://www.w3.org/2000/svg">
<g clip-path="url(#clip0)">
<path d="M30 15.3445C30 14.3248 29.9156 13.2996 29.7357 12.2965H15.3008V18.0727H23.567C23.224 19.9357 22.1218 21.5837 20.508 22.6309V26.3788H25.4395C28.3355 23.7663 30 19.9081 30 15.3445Z" fill="#4285F4"/>
<path d="M15.3008 30C19.4283 30 22.9091 28.6717 25.4451 26.3788L20.5136 22.6309C19.1415 23.5458 17.3702 24.0639 15.3064 24.0639C11.3139 24.0639 7.92875 21.4238 6.71413 17.8743H1.62509V21.738C4.22303 26.8032 9.5145 30 15.3008 30Z" fill="#34A853"/>
<path d="M6.7085 17.8743C6.06745 16.0114 6.06745 13.9941 6.7085 12.1312V8.26752H1.62509C-0.545481 12.506 -0.545481 17.4996 1.62509 21.738L6.7085 17.8743Z" fill="#FBBC04"/>
<path d="M15.3008 5.9361C17.4826 5.90303 19.5913 6.70773 21.1715 8.18486L25.5407 3.90229C22.7741 1.3559 19.1021 -0.0440591 15.3008 3.42701e-05C9.5145 3.42701e-05 4.22303 3.1968 1.62509 8.26753L6.7085 12.1312C7.9175 8.57619 11.3083 5.9361 15.3008 5.9361Z" fill="#EA4335"/>
</g>
<defs>
<clipPath id="clip0">
<rect width="30" height="30" fill="white"/>
</clipPath>
</defs>
</svg>
