<svg width="124" height="32" viewBox="0 0 124 32" fill="none" xmlns="http://www.w3.org/2000/svg">
<path d="M51.2607 7.31073C52.0603 7.31073 52.5986 7.94124 52.5063 8.72553L49.9535 24.3345C49.7843 25.1188 49.0462 25.7339 48.2619 25.7493H43.7868C42.9717 25.7339 42.4335 25.0727 42.5719 24.2576L45.094 8.80242C45.2324 7.972 46.0013 7.31073 46.8163 7.31073H51.2607Z" fill="#224B68"/>
<path d="M12.2766 6.83383C18.1512 6.83383 21.1038 8.98679 21.3345 13.4619C21.2883 14.077 20.7808 14.4307 20.135 14.4307H20.1196H20.1811H14.691C14.2912 14.4153 14.0759 14.2615 13.9529 13.8156C13.8299 12.0625 13.0456 11.2782 11.5385 11.2782C9.41628 11.2782 8.2014 12.8006 7.58626 16.5222C6.97113 20.2437 7.67853 21.7662 9.81612 21.7662C11.3232 21.7662 12.3535 20.9972 13.0456 19.2287C13.3224 18.7674 13.5838 18.6136 14.0144 18.6136H19.5506H19.4122H19.4276C20.0581 18.6136 20.4579 18.9673 20.3041 19.5824C18.6125 24.0729 14.9525 26.2105 9.07796 26.2105C2.00394 26.2105 -0.85642 23.0887 0.22006 16.5068C1.31192 9.95563 5.18725 6.83383 12.2766 6.83383Z" fill="#224B68"/>
<path d="M41.3252 7.30966C42.1248 7.30966 42.6631 7.94017 42.5708 8.72446L40.018 24.3334C39.8488 25.1177 39.1107 25.7329 38.3264 25.7482H33.8513C33.0362 25.7329 32.498 25.0716 32.6364 24.2565C32.6364 24.2565 33.4361 19.4124 33.4822 19.0894C33.5284 18.7819 33.2977 18.4897 32.9594 18.4897H29.7607C29.4531 18.4897 29.1148 18.7511 29.084 19.0125C29.0379 19.2586 28.2075 24.3334 28.2075 24.3334C28.0383 25.1177 27.3001 25.7329 26.5159 25.7482H22.0408C21.2257 25.7329 20.6875 25.0716 20.8259 24.2565L23.3479 8.80135C23.4863 7.97093 24.2552 7.30966 25.0703 7.30966H29.4992C30.2989 7.30966 30.8372 7.94017 30.7449 8.72446C30.7449 8.72446 29.8991 13.9223 29.8529 14.1376C29.8068 14.3529 30.0375 14.6297 30.3143 14.6451H33.6052C33.9128 14.6143 34.2204 14.3837 34.2665 14.0454C34.3126 13.7224 35.1277 8.78598 35.1277 8.78598C35.2661 7.95555 36.035 7.29428 36.8501 7.29428H41.3252V7.30966Z" fill="#224B68"/>
<path d="M61.0723 7.31073C61.8874 7.31073 62.4564 7.972 62.318 8.80242L62.3333 8.77167L60.4879 20.1362C60.4879 20.7514 60.8724 21.2435 61.4568 21.3665H65.532C66.2548 21.4126 66.7315 21.9816 66.6854 22.7044L66.424 24.2576C66.2856 25.0727 65.532 25.7493 64.717 25.7493H56.3358H56.4127C54.1675 25.7493 52.6143 23.9962 52.8142 21.7817L54.9518 8.66402C55.1517 7.91048 55.8745 7.31073 56.6434 7.31073H61.0723Z" fill="#224B68"/>
<path d="M76.0502 7.31073C76.8652 7.31073 77.4188 7.972 77.2958 8.80242L77.3112 8.77167L75.4504 20.1362C75.4504 20.7514 75.8349 21.2435 76.4192 21.3665H80.5099C81.2327 21.4126 81.7094 21.9816 81.6633 22.7044L81.4018 24.2576C81.2634 25.0727 80.5099 25.7493 79.6948 25.7493H71.3137H71.3752C69.1299 25.7493 67.5921 23.9962 67.7766 21.7817L69.9142 8.66402C70.1141 7.91048 70.8369 7.31073 71.6058 7.31073H76.0502Z" fill="#224B68"/>
<path d="M87.1226 8.18695C86.9381 9.44797 86.6613 12.4006 86.6613 16.6143C86.6613 20.8125 86.9381 22.5964 87.1995 24.0881C87.2456 24.5648 87.4455 24.8724 87.6762 25.1031C88.399 25.872 89.5062 26.7485 92.5511 28.5017C95.596 30.2394 98.4718 30.9314 99.4252 31.362C99.7174 31.5004 99.902 31.3005 99.9481 30.7777C100.056 29.409 100.071 26.2718 100.071 21.8121C100.071 17.1832 100.271 14.1845 100.179 13.0465C100.148 12.6774 99.9789 12.4314 99.7174 12.293C98.8409 11.8316 96.365 11.0166 93.197 9.81704C90.1367 8.66367 88.5989 8.04854 87.6301 7.7256C87.3071 7.63333 87.1841 7.80249 87.1226 8.18695Z" fill="#1FBBEE"/>
<path d="M123.692 6.89441C123.846 8.01703 123.999 10.862 123.999 14.7989C123.999 18.7818 123.676 21.5961 123.492 22.7033C123.476 22.9801 123.307 23.1646 123.077 23.3184C121.939 24.1027 119.632 25.7636 115.095 27.5936C110.405 29.4851 104.515 31.0845 102.777 31.4382C102.454 31.5458 102.27 31.4228 102.239 31.0691C102.162 29.7619 102.131 26.2096 102.131 21.8883C102.131 17.69 102.162 14.4298 102.27 13.0919C102.301 12.7074 102.47 12.4614 102.762 12.3383C104.361 11.6309 108.129 10.5544 113.188 9.13964C118.125 7.7556 121.739 6.86366 123.169 6.6176C123.492 6.54071 123.661 6.64836 123.692 6.89441Z" fill="#1FBBEE"/>
<path d="M109.129 0.743684C110.159 0.897467 112.189 1.11276 115.772 2.02008C119.402 2.94278 121.339 3.83472 122.493 4.34221C122.969 4.52675 122.862 4.69591 122.323 4.89582C120.54 5.54171 116.526 6.55668 112.343 7.69467C107.929 8.89418 103.316 10.2475 101.67 10.5704C101.255 10.6473 100.809 10.6319 100.409 10.5397C99.1176 10.2628 96.8878 9.27864 93.8121 8.23291C91.0594 7.29484 89.2909 6.63357 88.4451 6.24911C87.9991 6.0492 88.0606 5.88004 88.522 5.6955C90.0598 5.06499 93.32 3.66556 97.8566 2.54294C102.409 1.40495 106.269 0.897467 107.852 0.759063C108.314 0.728306 108.714 0.682171 109.129 0.743684Z" fill="#1FBBEE"/>
</svg>
